# xmcd
#
# Track frame offsets:
#	150
#	17485
#	34895
#	51685
#	68798
#	84198
#	99995
#	117528
#	132783
#	147568
#	160548
#	177990
#	192990
#
# Disc length: 2751 seconds
#
# Revision: 0
# Processed by: cddbd v1.5.2PL0 Copyright (c) Steve Scherf et al.
# Submitted via: EasyCDDAExtractor 10.0.6.1
#
DISCID=b10abd0d
DTITLE=Various Artist - CDX Vol.26 February
DYEAR=1992
DGENRE=Country
TTITLE0=Texas Tornados - Did I Tell You
TTITLE1=Wayland Patton - Gulf Stream Dreaming
TTITLE2=David Lynn Jones - Her Love Don't Lie
TTITLE3=Billy Joe Royal - I'm Okay
TTITLE4=Rodney Crowell - Loving All Night
TTITLE5=Skip Ewing - Naturally
TTITLE6=Clinton Gregory - Play, Ruby Play
TTITLE7=McBride and The Ride - Sacred Ground
TTITLE8=Sawyer Brown - Some Girls Do
TTITLE9=DeAnna Cox - Texas Sidestep
TTITLE10=Trissha Yearwood - The Woman Before Me
TTITLE11=Jeff Knight - They've Been Talking About Me
TTITLE12=Martin Delray - Who, What, Where, When, Why, How
EXTD=
EXTT0=
EXTT1=
EXTT2=
EXTT3=
EXTT4=
EXTT5=
EXTT6=
EXTT7=
EXTT8=
EXTT9=
EXTT10=
EXTT11=
EXTT12=
PLAYORDER=
